<?xml version="1.0" standalone="no"?><!DOCTYPE svg PUBLIC "-//W3C//DTD SVG 1.1//EN" "http://www.w3.org/Graphics/SVG/1.1/DTD/svg11.dtd"><svg t="1614264431315" class="icon" viewBox="0 0 1024 1024" version="1.1" xmlns="http://www.w3.org/2000/svg" p-id="1155" width="32" height="32" xmlns:xlink="http://www.w3.org/1999/xlink"><defs><style type="text/css"></style></defs><path d="M92.752 110.356c51.364 0 93.004 41.638 93.004 93.002s-41.64 93.004-93.004 93.004M136.274 1005.326c0-51.366 41.638-93.008 93.002-93.008s93.004 41.638 93.006 93.004" fill="#80CFF4" p-id="1156"></path><path d="M812.226 1022.738H138.338c-32.596 0-59.112-26.518-59.112-59.114V60.376C79.226 27.78 105.742 1.262 138.338 1.262H580.9a11.822 11.822 0 0 1 0 23.646H138.338c-19.556 0-35.468 15.91-35.468 35.466v903.25c0 19.556 15.912 35.468 35.468 35.468h673.888c19.556 0 35.466-15.912 35.466-35.468V289.73a11.822 11.822 0 0 1 23.646 0v673.894c0.002 32.596-26.516 59.114-59.112 59.114z" p-id="1157"></path><path d="M261.224 519.094a11.798 11.798 0 0 1-7.986-3.108l-56.75-52.02a11.82 11.82 0 0 1-0.724-16.704 11.82 11.82 0 0 1 16.702-0.724l56.75 52.02a11.822 11.822 0 0 1-7.992 20.536z" fill="#F18D00" p-id="1158"></path><path d="M261.23 518.454a11.824 11.824 0 0 1-8.064-20.474l105.188-98.026a11.816 11.816 0 0 1 16.708 0.59 11.82 11.82 0 0 1-0.588 16.708l-105.188 98.03a11.786 11.786 0 0 1-8.056 3.172zM261.224 672.15a11.796 11.796 0 0 1-7.986-3.106l-56.75-52.02a11.82 11.82 0 0 1-0.724-16.704 11.826 11.826 0 0 1 16.702-0.726l56.75 52.02a11.82 11.82 0 0 1 0.726 16.702 11.776 11.776 0 0 1-8.718 3.834z" fill="#F18D00" p-id="1159"></path><path d="M261.23 671.512a11.824 11.824 0 0 1-8.064-20.472l105.188-98.024a11.82 11.82 0 1 1 16.12 17.296l-105.188 98.026a11.788 11.788 0 0 1-8.056 3.174zM261.224 825.208a11.786 11.786 0 0 1-7.986-3.106l-56.75-52.02a11.826 11.826 0 0 1 15.978-17.43l56.75 52.022a11.822 11.822 0 0 1-7.992 20.534z" fill="#F18D00" p-id="1160"></path><path d="M261.23 824.57a11.82 11.82 0 0 1-8.064-20.472l105.188-98.026a11.818 11.818 0 0 1 16.708 0.588 11.82 11.82 0 0 1-0.588 16.71l-105.188 98.028a11.786 11.786 0 0 1-8.056 3.172z" fill="#F18D00" p-id="1161"></path><path d="M583.266 22.536v217.162c0 31.294 25.37 56.666 56.666 56.666h219.586L583.266 22.536z" fill="#80CFF4" p-id="1162"></path><path d="M859.518 300.306H639.932c-37.766 0-68.488-30.726-68.488-68.49V14.652a11.824 11.824 0 0 1 20.146-8.396L867.84 280.084a11.826 11.826 0 0 1 2.614 12.898 11.834 11.834 0 0 1-10.936 7.324zM595.088 43.018v188.796c0 24.728 20.118 44.844 44.844 44.844h190.866L595.088 43.018zM765.068 485.99H457.682a11.82 11.82 0 0 1-11.822-11.822 11.82 11.82 0 0 1 11.822-11.822h307.386a11.82 11.82 0 0 1 11.822 11.822 11.82 11.82 0 0 1-11.822 11.822zM696.496 637.712h-91.166a11.82 11.82 0 0 1-11.822-11.822 11.82 11.82 0 0 1 11.822-11.824h91.166a11.82 11.82 0 0 1 11.824 11.824 11.82 11.82 0 0 1-11.824 11.822zM559.222 637.712H457.68a11.82 11.82 0 0 1-11.822-11.822 11.82 11.82 0 0 1 11.822-11.824h101.542a11.822 11.822 0 1 1 0 23.646zM765.068 789.434H457.682c-6.53 0-11.822-5.292-11.822-11.822s5.292-11.822 11.822-11.822h307.386c6.534 0 11.822 5.292 11.822 11.822s-5.292 11.822-11.822 11.822zM778.92 978.142a7.092 7.092 0 1 1 0-14.188c19.764 0 35.842-16.076 35.842-35.838V890.32a7.092 7.092 0 1 1 14.186 0v37.792c0 27.588-22.442 50.03-50.028 50.03zM821.854 872.976a7.092 7.092 0 0 1-7.092-7.094v-29.16a7.092 7.092 0 1 1 14.186 0v29.16a7.094 7.094 0 0 1-7.094 7.094z" p-id="1163"></path><path d="M448.702 186.652h-59.114a7.094 7.094 0 1 1 0-14.186h59.114a7.092 7.092 0 1 1 0 14.186z" fill="#E81F1F" p-id="1164"></path><path d="M419.144 216.208a7.094 7.094 0 0 1-7.094-7.094V150.004a7.092 7.092 0 1 1 14.188 0v59.112a7.092 7.092 0 0 1-7.094 7.092z" fill="#E81F1F" p-id="1165"></path><path d="M476.464 143.9a13.02 13.02 0 0 1-13.004-13.004 13.02 13.02 0 0 1 13.004-13.006 13.02 13.02 0 0 1 13.006 13.006 13.02 13.02 0 0 1-13.006 13.004z m0-18.916a5.92 5.92 0 0 0-5.912 5.912 5.92 5.92 0 0 0 5.912 5.91 5.92 5.92 0 0 0 5.912-5.91 5.92 5.92 0 0 0-5.912-5.912z" fill="#F18D00" p-id="1166"></path><path d="M324.21 101.236m-19.212 0a19.212 19.212 0 1 0 38.424 0 19.212 19.212 0 1 0-38.424 0Z" fill="#58B530" p-id="1167"></path><path d="M381.056 144.308a4.684 4.684 0 0 1-3.176-1.228l-19.124-17.368a4.728 4.728 0 1 1 6.358-7.004l19.122 17.37a4.73 4.73 0 0 1-3.18 8.23z" fill="#36B8F2" p-id="1168"></path><path d="M362.812 145.186a4.732 4.732 0 0 1-3.498-7.908l17.366-19.124a4.73 4.73 0 0 1 7.002 6.358l-17.366 19.124a4.722 4.722 0 0 1-3.504 1.55z" fill="#36B8F2" p-id="1169"></path><path d="M931.768 379.218a13.02 13.02 0 0 1-13.004-13.004 13.02 13.02 0 0 1 13.004-13.006 13.02 13.02 0 0 1 13.006 13.006 13.02 13.02 0 0 1-13.006 13.004z m0-23.644a10.654 10.654 0 0 0-10.64 10.64 10.652 10.652 0 0 0 10.64 10.638 10.652 10.652 0 0 0 10.642-10.638 10.654 10.654 0 0 0-10.642-10.64z" fill="#F18D00" p-id="1170"></path><path d="M792.106 51.002m-35.468 0a35.468 35.468 0 1 0 70.936 0 35.468 35.468 0 1 0-70.936 0Z" fill="#36B8F2" p-id="1171"></path><path d="M795.14 108.556c-4.026 0-8.044-0.576-11.94-1.71a42.284 42.284 0 0 1-25.4-20.394 42.282 42.282 0 0 1-3.538-32.38c5.268-18.046 22.06-30.648 40.842-30.648 4.026 0 8.042 0.576 11.934 1.71 10.914 3.182 19.938 10.428 25.402 20.396s6.718 21.468 3.538 32.382c-5.262 18.044-22.058 30.644-40.838 30.644z m-0.032-70.95c-12.518 0-23.71 8.402-27.222 20.436a28.19 28.19 0 0 0 2.358 21.592 28.194 28.194 0 0 0 16.932 13.596c2.606 0.758 5.282 1.142 7.966 1.142 12.516 0 23.708-8.402 27.22-20.436 2.12-7.276 1.284-14.942-2.36-21.588s-9.658-11.474-16.932-13.596a28.274 28.274 0 0 0-7.962-1.146z" p-id="1172"></path><path d="M861.126 143.998a4.74 4.74 0 0 1-4.04-2.26 4.74 4.74 0 0 1 1.564-6.502l18.888-11.568a4.734 4.734 0 0 1 6.506 1.564 4.736 4.736 0 0 1-1.562 6.502l-18.888 11.568a4.732 4.732 0 0 1-2.468 0.696z" p-id="1173"></path><path d="M876.358 147.658a4.724 4.724 0 0 1-4.038-2.262l-11.568-18.888a4.73 4.73 0 0 1 1.558-6.502 4.732 4.732 0 0 1 6.504 1.562l11.568 18.888a4.726 4.726 0 0 1-4.024 7.202z" p-id="1174"></path></svg>