<?xml version="1.0" standalone="no"?><!DOCTYPE svg PUBLIC "-//W3C//DTD SVG 1.1//EN" "http://www.w3.org/Graphics/SVG/1.1/DTD/svg11.dtd"><svg t="1614264550186" class="icon" viewBox="0 0 1024 1024" version="1.1" xmlns="http://www.w3.org/2000/svg" p-id="2230" width="32" height="32" xmlns:xlink="http://www.w3.org/1999/xlink"><defs><style type="text/css"></style></defs><path d="M70.065873 727.004925c11.48834 0 20.798994 9.310654 20.798994 20.800994 0 11.48234-9.312654 20.800994-20.798994 20.800993-11.48834 0-20.800994-9.318653-20.800993-20.800993 0-11.490339 9.312654-20.800994 20.800993-20.800994z" fill="#58B530" p-id="2231"></path><path d="M813.700395 771.986424a7.68289 7.68289 0 0 1-7.68089-7.67889v-57.749654a7.67889 7.67889 0 0 1 15.36178 0v57.749654c0 4.237388-3.439503 7.67889-7.68089 7.67889zM813.700395 678.40195a7.68289 7.68289 0 0 1-7.68089-7.68289v-102.3992a7.67889 7.67889 0 0 1 15.36178 0v102.3992a7.68289 7.68289 0 0 1-7.68089 7.68289z" p-id="2232"></path><path d="M74.873178 709.267489a5.11926 5.11926 0 0 1-4.705319-7.134969l10.990411-25.718283a5.127259 5.127259 0 0 1 6.719029-2.69561 5.12126 5.12126 0 0 1 2.69561 6.721028l-10.990411 25.714284a5.11926 5.11926 0 0 1-4.70932 3.11355z" fill="#36B8F2" p-id="2233"></path><path d="M93.224526 701.906553a5.079266 5.079266 0 0 1-2.00771-0.41794l-25.714283-10.986412a5.12326 5.12326 0 0 1 4.025418-9.420639l25.714284 10.994411a5.11926 5.11926 0 0 1-2.017709 9.83058z" fill="#36B8F2" p-id="2234"></path><path d="M855.622336 797.466741v165.492081c0 28.277913-22.922687 51.2006-51.2006 51.2006H210.501576c-28.279913 0-51.2006-22.922687-51.2006-51.2006v-167.201834M159.300976 142.173451V61.159161c0-28.279913 22.922687-51.2006 51.2006-51.2006h593.91816c28.279913 0 51.2006 22.920687 51.2006 51.2006v82.720044" fill="#80CFF4" p-id="2235"></path><path d="M961.826986 73.807333m-38.39845 0a38.39845 38.39845 0 1 0 76.7969 0 38.39845 38.39845 0 1 0-76.7969 0Z" fill="#36B8F2" p-id="2236"></path><path d="M967.628147 207.849959a7.638896 7.638896 0 0 1-3.771454-0.995856l-55.717947-31.491448a7.67889 7.67889 0 0 1 7.558907-13.374067l55.717947 31.495448a7.67889 7.67889 0 0 1-3.787453 14.365923z" fill="#E81F1F" p-id="2237"></path><path d="M924.02445 219.960209a7.67889 7.67889 0 0 1-6.677035-11.462343l31.491448-55.713948a7.67889 7.67889 0 1 1 13.370068 7.556908l-31.491449 55.717947a7.670891 7.670891 0 0 1-6.693032 3.901436z" fill="#E81F1F" p-id="2238"></path><path d="M996.73994 182.59161c-7.762878 0-14.077965-6.317087-14.077965-14.079965s6.315087-14.079965 14.077965-14.079965c7.760878 0 14.079965 6.317087 14.079965 14.079965s-6.319087 14.079965-14.079965 14.079965z m0-20.47904c-3.52949 0-6.399075 2.873585-6.399075 6.401075s2.871585 6.401075 6.399075 6.401074c3.53149 0 6.399075-2.873585 6.399075-6.401074s-2.867586-6.401075-6.399075-6.401075z" fill="#F18D00" p-id="2239"></path><path d="M965.112511 136.122326a46.113335 46.113335 0 0 1-12.926132-1.855732 45.813379 45.813379 0 0 1-27.502025-22.078809 45.779383 45.779383 0 0 1-3.823447-35.060932c5.697177-19.537176 23.878549-33.181204 44.21361-33.181205 4.36137 0 8.706742 0.62591 12.922132 1.853733a45.745388 45.745388 0 0 1 27.500025 22.080808 45.73339 45.73339 0 0 1 3.829447 35.054934c-5.699176 19.539176-23.878549 33.187203-44.21361 33.187203z m-0.037994-76.816897c-13.554041 0-25.66829 9.098685-29.471741 22.122802a30.551584 30.551584 0 0 0 2.549632 23.376621 30.531587 30.531587 0 0 0 18.33335 14.719873c2.821592 0.819882 5.719173 1.237821 8.624753 1.237821 13.550042 0 25.66829-9.100685 29.469741-22.128802 2.293668-7.872862 1.389799-16.173662-2.553631-23.370622s-10.456489-12.424204-18.33135-14.717873a30.701563 30.701563 0 0 0-8.620754-1.23982zM804.419736 1024H210.501576c-35.2889 0-64.00075-28.709851-64.00075-63.99875V64.00075c0-35.2889 28.709851-64.00075 64.00075-64.00075h593.91816c35.2869 0 64.00075 28.709851 64.00075 64.00075v235.51796a12.79815 12.79815 0 1 1-25.5983 0V64.00075c0-21.17294-17.22551-38.40045-38.40045-38.40045H210.501576c-21.17494 0-38.40045 17.22751-38.40045 38.40045v896.0005c0 21.16894 17.22551 38.396451 38.40045 38.39645h593.91816c21.17494 0 38.40045-17.22751 38.40045-38.39645V363.52146a12.79815 12.79815 0 0 1 12.80015-12.79815 12.79815 12.79815 0 0 1 12.79815 12.79815v596.48179c0.002 35.2869-28.709851 63.99675-63.99875 63.99675z" p-id="2240"></path><path d="M541.0618 102.211227h-128.0015a15.36178 15.36178 0 0 1 0-30.721559h128.0015c8.478775 0 15.35978 6.879006 15.35978 15.361779a15.363779 15.363779 0 0 1-15.35978 15.35978zM617.8627 102.211227h-28.16393a15.363779 15.363779 0 0 1-15.35978-15.35978 15.363779 15.363779 0 0 1 15.35978-15.361779h28.16393a15.36178 15.36178 0 0 1 0 30.721559z" fill="#FFFFFF" p-id="2241"></path><path d="M507.460656 898.55813m-51.2006 0a51.2006 51.2006 0 1 0 102.4012 0 51.2006 51.2006 0 1 0-102.4012 0Z" fill="#FFFFFF" p-id="2242"></path><path d="M369.220636 304.63997c0 14.137957-11.460344 25.6003-25.6003 25.6003h-76.7989c-14.139956 0-25.6003-11.460344-25.6003-25.6003V227.84107c0-14.139956 11.460344-25.6003 25.6003-25.6003h76.7989c14.139956 0 25.6003 11.460344 25.6003 25.6003v76.7989z" fill="#88C057" p-id="2243"></path><path d="M571.459406 304.63997c0 14.137957-11.458344 25.6003-25.5983 25.6003h-76.8009c-14.135957 0-25.6003-11.460344-25.6003-25.6003V227.84107c0-14.139956 11.462343-25.6003 25.6003-25.6003h76.8009c14.137957 0 25.5983 11.460344 25.5983 25.6003v76.7989z" fill="#3083C9" p-id="2244"></path><path d="M773.698176 304.63997c0 14.137957-11.456344 25.6003-25.6003 25.6003h-76.7969c-14.137957 0-25.6003-11.460344-25.6003-25.6003V227.84107c0-14.139956 11.460344-25.6003 25.6003-25.6003h76.7969c14.141956 0 25.6003 11.460344 25.6003 25.6003v76.7989z" fill="#F18D00" p-id="2245"></path><path d="M369.220636 481.720376c0 14.135957-11.460344 25.6023-25.6003 25.6023h-76.7989c-14.139956 0-25.6003-11.464343-25.6003-25.6023v-76.7989c0-14.137957 11.460344-25.6003 25.6003-25.6003h76.7989c14.139956 0 25.6003 11.460344 25.6003 25.6003v76.7989z" fill="#7383BF" p-id="2246"></path><path d="M571.459406 481.720376c0 14.135957-11.458344 25.6023-25.5983 25.6023h-76.8009c-14.135957 0-25.6003-11.464343-25.6003-25.6023v-76.7989c0-14.137957 11.462343-25.6003 25.6003-25.6003h76.8009c14.137957 0 25.5983 11.460344 25.5983 25.6003v76.7989z" fill="#EBBA16" p-id="2247"></path><path d="M773.698176 481.720376c0 14.135957-11.456344 25.6023-25.6003 25.6023h-76.7969c-14.137957 0-25.6003-11.464343-25.6003-25.6023v-76.7989c0-14.137957 11.460344-25.6003 25.6003-25.6003h76.7969c14.141956 0 25.6003 11.460344 25.6003 25.6003v76.7989z" fill="#DD352E" p-id="2248"></path><path d="M369.220636 652.79965c0 14.137957-11.460344 25.6023-25.6003 25.6023h-76.7989c-14.139956 0-25.6003-11.462343-25.6003-25.6023v-76.8009c0-14.137957 11.460344-25.5983 25.6003-25.5983h76.7989c14.139956 0 25.6003 11.458344 25.6003 25.5983v76.8009z" fill="#EA6248" p-id="2249"></path><path d="M571.459406 652.79965c0 14.137957-11.458344 25.6023-25.5983 25.6023h-76.8009c-14.135957 0-25.6003-11.462343-25.6003-25.6023v-76.8009c0-14.137957 11.462343-25.5983 25.6003-25.5983h76.8009c14.137957 0 25.5983 11.458344 25.5983 25.5983v76.8009z" fill="#A485BE" p-id="2250"></path><path d="M67.512242 59.71337l16.907557 34.253049 37.800536 5.491206-27.354046 26.664146 6.457067 37.646559-33.811114-17.773431-33.809113 17.773431 6.457067-37.646559L12.806149 99.457625l37.802536-5.491206z" fill="#F9F493" p-id="2251"></path></svg>