<?xml version="1.0" standalone="no"?><!DOCTYPE svg PUBLIC "-//W3C//DTD SVG 1.1//EN" "http://www.w3.org/Graphics/SVG/1.1/DTD/svg11.dtd"><svg t="1614264517402" class="icon" viewBox="0 0 1024 1024" version="1.1" xmlns="http://www.w3.org/2000/svg" p-id="1800" width="16" height="16" xmlns:xlink="http://www.w3.org/1999/xlink"><defs><style type="text/css"></style></defs><path d="M1009.476 246.106v30.634H508.178c-16.92 0-27.484-18.302-33.172-30.634l-30.458-63.098c-5.942-11.922-21.818-30.634-4.898-30.634H978.84c16.922 0 30.636 13.716 30.636 30.634v63.098zM77.928 994.614c0-55.132 44.696-99.832 99.832-99.832 55.136 0 99.834 44.692 99.834 99.832" fill="#80CFF4" p-id="1801"></path><path d="M958.714 1009.46H65.288C30.3 1009.46 1.834 981 1.834 946.014V130.01c0-34.984 28.466-63.444 63.454-63.444h289.348c32.804 0 59.282 32.022 76.348 56.108 0.336 0.478 0.644 0.98 0.914 1.5l70.696 136.538h506.884a12.692 12.692 0 0 1 12.692 12.692v672.608c-0.002 34.988-28.466 63.448-63.456 63.448zM27.214 373.692v572.324c0 20.988 17.078 38.066 38.072 38.066h893.428c20.992 0 38.07-17.078 38.07-38.066v-659.92H496.136a12.704 12.704 0 0 1-6.914-2.048l-1.904-1.236a12.684 12.684 0 0 1-4.354-4.808l-73.198-141.362c-21.13-29.66-39.676-44.694-55.132-44.694H65.288c-20.994 0-38.072 17.074-38.072 38.062v243.682z" p-id="1802"></path><path d="M907.106 794.504c0 28.032-22.726 50.762-50.762 50.762H516.23c-28.034 0-50.762-22.73-50.762-50.762V572.836c0-28.036 22.728-50.762 50.762-50.762h340.114c28.036 0 50.762 22.726 50.762 50.762v221.668z" fill="#F18D00" p-id="1803"></path><path d="M667.672 636.594h-126.902c-7.012 0-12.692-5.68-12.692-12.692s5.68-12.692 12.692-12.692h126.902c7.016 0 12.696 5.68 12.696 12.692s-5.68 12.692-12.696 12.692zM743.816 706.938H540.77a12.692 12.692 0 1 1 0-25.384h203.046a12.692 12.692 0 0 1 0 25.384zM819.96 777.278H540.77a12.692 12.692 0 1 1 0-25.384H819.96c7.012 0 12.696 5.684 12.696 12.692s-5.684 12.692-12.696 12.692z" fill="#FFFFFF" p-id="1804"></path><path d="M890.442 52.61m-38.072 0a38.072 38.072 0 1 0 76.144 0 38.072 38.072 0 1 0-76.144 0Z" fill="#36B8F2" p-id="1805"></path><path d="M893.7 114.394c-4.32 0-8.632-0.62-12.812-1.84a45.428 45.428 0 0 1-27.27-21.892 45.396 45.396 0 0 1-3.796-34.76c5.652-19.372 23.68-32.9 43.844-32.9 4.32 0 8.628 0.62 12.808 1.838 11.718 3.416 21.402 11.19 27.27 21.892s7.214 23.046 3.796 34.756c-5.654 19.374-23.68 32.906-43.84 32.906z m-0.036-76.164c-13.442 0-25.454 9.02-29.218 21.936a30.252 30.252 0 0 0 2.528 23.176 30.256 30.256 0 0 0 18.176 14.594c2.796 0.814 5.668 1.228 8.546 1.228 13.438 0 25.454-9.022 29.226-21.94a30.27 30.27 0 0 0-2.536-23.17 30.254 30.254 0 0 0-18.172-14.594 30.466 30.466 0 0 0-8.55-1.23z" p-id="1806"></path><path d="M354.252 199.434a7.55 7.55 0 0 1-3.74-0.988l-55.24-31.224a7.616 7.616 0 0 1 7.494-13.26l55.242 31.224a7.616 7.616 0 0 1-3.756 14.248z" fill="#E81F1F" p-id="1807"></path><path d="M311.018 211.44a7.618 7.618 0 0 1-6.622-11.364l31.226-55.242a7.616 7.616 0 0 1 13.258 7.494l-31.222 55.242a7.62 7.62 0 0 1-6.64 3.87z" fill="#E81F1F" p-id="1808"></path><path d="M67.774 653.012c-7.7 0-13.96-6.266-13.96-13.958 0-7.7 6.26-13.964 13.96-13.964 7.698 0 13.96 6.266 13.96 13.964 0 7.692-6.262 13.958-13.96 13.958z m0-20.304a6.352 6.352 0 0 0-6.346 6.348 6.354 6.354 0 0 0 6.346 6.344 6.354 6.354 0 0 0 6.344-6.344 6.35 6.35 0 0 0-6.344-6.348z" fill="#F18D00" p-id="1809"></path><path d="M237.626 185.022m-20.622 0a20.622 20.622 0 1 0 41.244 0 20.622 20.622 0 1 0-41.244 0Z" fill="#58B530" p-id="1810"></path><path d="M198.286 171.424a5.04 5.04 0 0 1-3.412-1.32l-20.526-18.642a5.078 5.078 0 0 1 6.824-7.514l20.526 18.642a5.076 5.076 0 0 1-3.412 8.834z" fill="#36B8F2" p-id="1811"></path><path d="M178.702 172.368a5.076 5.076 0 0 1-3.756-8.488l18.642-20.528a5.076 5.076 0 1 1 7.514 6.826L182.46 170.702c-1 1.102-2.378 1.666-3.758 1.666z" fill="#36B8F2" p-id="1812"></path><path d="M69.042 605.372a7.614 7.614 0 0 1-7.614-7.614v-57.254a7.614 7.614 0 0 1 15.23 0v57.254a7.616 7.616 0 0 1-7.616 7.614zM69.042 512.592a7.616 7.616 0 0 1-7.614-7.618v-101.526a7.614 7.614 0 1 1 15.23 0v101.526a7.616 7.616 0 0 1-7.616 7.618z" p-id="1813"></path></svg>