<?xml version="1.0" standalone="no"?><!DOCTYPE svg PUBLIC "-//W3C//DTD SVG 1.1//EN" "http://www.w3.org/Graphics/SVG/1.1/DTD/svg11.dtd"><svg t="1614264484944" class="icon" viewBox="0 0 1024 1024" version="1.1" xmlns="http://www.w3.org/2000/svg" p-id="1537" width="16" height="16" xmlns:xlink="http://www.w3.org/1999/xlink"><defs><style type="text/css"></style></defs><path d="M689.764 990.286c-0.002-52.632 42.668-95.304 95.304-95.304 52.634 0 95.306 42.664 95.306 95.302" fill="#80CFF4" p-id="1538"></path><path d="M883.792 1023.9H193.232c-63.46 0-115.092-51.63-115.092-115.094V218.25c0-63.46 51.632-115.092 115.092-115.092h690.56c63.458 0 115.092 51.632 115.092 115.092v690.556c0 63.464-51.63 115.094-115.092 115.094zM193.232 139.502c-43.42 0-78.748 35.328-78.748 78.748v690.556c0 43.426 35.328 78.748 78.748 78.748h690.56c43.42 0 78.746-35.322 78.746-78.748V218.25c0-43.418-35.326-78.748-78.746-78.748H193.232z" p-id="1539"></path><path d="M397.974 236.754h-33.92c-28.726 0-52.096-22.644-52.096-50.48V57.05c0-27.836 23.37-50.482 52.096-50.482h33.92c28.726 0 52.096 22.646 52.096 50.482v129.224c0.002 27.836-23.368 50.48-52.096 50.48z m-33.92-193.84c-8.684 0-15.75 6.34-15.75 14.136v129.224c0 7.796 7.066 14.136 15.75 14.136h33.922c8.682 0 15.75-6.34 15.75-14.136V57.05c0-7.794-7.066-14.136-15.75-14.136h-33.922zM723.15 236.754h-33.922c-28.726 0-52.098-22.642-52.098-50.474V57.05c0-27.836 23.372-50.482 52.098-50.482h33.922c28.724 0 52.094 22.646 52.094 50.482V186.28c0 27.832-23.368 50.474-52.094 50.474z m-33.922-193.84c-8.684 0-15.752 6.34-15.752 14.136V186.28c0 7.792 7.068 14.13 15.752 14.13h33.922c8.684 0 15.748-6.338 15.748-14.13V57.05c0-7.794-7.064-14.136-15.748-14.136h-33.922zM980.712 323.652h-884.4a18.172 18.172 0 0 1 0-36.344h884.402a18.174 18.174 0 0 1-0.002 36.344z" p-id="1540"></path><path d="M291.84 412.898l17.972 38.282 40.18 6.142-29.076 29.8 6.864 42.08-35.94-19.868-35.938 19.868 6.862-42.08-29.076-29.8 40.184-6.142zM291.84 583.862l17.972 38.282 40.18 6.142-29.076 29.8 6.864 42.078-35.94-19.866-35.938 19.866 6.862-42.078-29.076-29.8 40.184-6.142zM291.84 754.824l17.972 38.288 40.18 6.136-29.076 29.806 6.864 42.076-35.94-19.866-35.938 19.866 6.862-42.076-29.076-29.806 40.184-6.136z" fill="#F18D00" p-id="1541"></path><path d="M809.312 497.704H445.858a12.116 12.116 0 0 1 0-24.23h363.454a12.116 12.116 0 0 1 0 24.23zM809.312 668.666H445.858a12.116 12.116 0 1 1 0-24.232h363.454a12.116 12.116 0 1 1 0 24.232zM809.312 839.63H445.858a12.116 12.116 0 0 1 0-24.232h363.454a12.116 12.116 0 1 1 0 24.232z" p-id="1542"></path><path d="M234.834 45.332a13.346 13.346 0 0 1-8.386-2.978 13.22 13.22 0 0 1-4.86-8.964 13.226 13.226 0 0 1 2.904-9.778 13.276 13.276 0 0 1 10.358-4.934c3.04 0 6.02 1.056 8.388 2.978 5.704 4.63 6.584 13.038 1.956 18.746a13.286 13.286 0 0 1-10.36 4.93z m0.014-24.23a10.854 10.854 0 0 0-8.476 4.038 10.844 10.844 0 0 0-2.376 8 10.824 10.824 0 0 0 3.978 7.334 10.772 10.772 0 0 0 6.862 2.434 10.858 10.858 0 0 0 8.476-4.036 10.918 10.918 0 0 0-1.598-15.336 10.82 10.82 0 0 0-6.866-2.434z" fill="#F18D00" p-id="1543"></path><path d="M71.83 36.444m-36.344 0a36.344 36.344 0 1 0 72.688 0 36.344 36.344 0 1 0-72.688 0Z" fill="#36B8F2" p-id="1544"></path><path d="M68.712 95.416c-9.956 0-19.704-3.46-27.448-9.742a43.314 43.314 0 0 1-15.906-29.348 43.332 43.332 0 0 1 9.502-32 43.466 43.466 0 0 1 33.896-16.142c9.958 0 19.706 3.458 27.45 9.742a43.32 43.32 0 0 1 15.904 29.348 43.338 43.338 0 0 1-9.5 32 43.456 43.456 0 0 1-33.898 16.142z m0.044-72.694a28.98 28.98 0 0 0-22.606 10.762 28.886 28.886 0 0 0-6.336 21.332 28.884 28.884 0 0 0 10.606 19.566 28.742 28.742 0 0 0 18.292 6.494c8.82 0 17.06-3.922 22.606-10.762a28.88 28.88 0 0 0 6.334-21.332 28.89 28.89 0 0 0-10.602-19.566 28.748 28.748 0 0 0-18.294-6.494zM157.7 40.29a4.852 4.852 0 0 1-4.786-4.114 4.852 4.852 0 0 1 4.056-5.526l22.434-3.438c2.646-0.398 5.122 1.414 5.526 4.056s-1.41 5.118-4.058 5.524l-22.434 3.438c-0.246 0.042-0.496 0.06-0.738 0.06z" p-id="1545"></path><path d="M170.636 49.786a4.848 4.848 0 0 1-4.786-4.114l-3.436-22.434a4.85 4.85 0 0 1 4.056-5.526 4.85 4.85 0 0 1 5.524 4.056l3.438 22.434a4.846 4.846 0 0 1-4.796 5.584z" p-id="1546"></path><path d="M823.84 757.55h-60.576a7.268 7.268 0 1 1 0-14.538h60.576a7.268 7.268 0 1 1 0 14.538z" fill="#E81F1F" p-id="1547"></path><path d="M793.55 787.838a7.268 7.268 0 0 1-7.27-7.27v-60.574a7.268 7.268 0 0 1 14.54 0v60.574a7.268 7.268 0 0 1-7.27 7.27z" fill="#E81F1F" p-id="1548"></path><path d="M726.296 704.132m-19.686 0a19.686 19.686 0 1 0 39.372 0 19.686 19.686 0 1 0-39.372 0Z" fill="#58B530" p-id="1549"></path><path d="M853.242 717.874a4.82 4.82 0 0 1-3.256-1.258l-19.596-17.796a4.852 4.852 0 0 1-0.332-6.85 4.85 4.85 0 0 1 6.846-0.326l19.596 17.796a4.848 4.848 0 0 1-3.258 8.434z" fill="#36B8F2" p-id="1550"></path><path d="M834.542 718.774a4.852 4.852 0 0 1-3.588-8.106l17.802-19.598a4.848 4.848 0 0 1 7.174 6.516l-17.8 19.598a4.814 4.814 0 0 1-3.588 1.59z" fill="#36B8F2" p-id="1551"></path></svg>