<?xml version="1.0" standalone="no"?><!DOCTYPE svg PUBLIC "-//W3C//DTD SVG 1.1//EN" "http://www.w3.org/Graphics/SVG/1.1/DTD/svg11.dtd"><svg t="1614264637017" class="icon" viewBox="0 0 1024 1024" version="1.1" xmlns="http://www.w3.org/2000/svg" p-id="1054" width="16" height="16" xmlns:xlink="http://www.w3.org/1999/xlink"><defs><style type="text/css"></style></defs><path d="M960.96 1024h-898A63.14 63.14 0 0 1 0 960.92v-152a63.14 63.14 0 0 1 63.04-63.08h898A63.14 63.14 0 0 1 1024 808.96v152A63.14 63.14 0 0 1 960.96 1024zM78.8 945.14h866.4v-120.4H78.8z" fill="#3390FF" p-id="1055"></path><path d="M122.4 864.54m20.4 0l84.16 0q20.4 0 20.4 20.4l0 0q0 20.4-20.4 20.4l-84.16 0q-20.4 0-20.4-20.4l0 0q0-20.4 20.4-20.4Z" fill="#3390FF" p-id="1056"></path><path d="M960.96 278.12h-898A63.14 63.14 0 0 1 0 215.04v-152A63.14 63.14 0 0 1 63.04 0h898A63.14 63.14 0 0 1 1024 63.08v152a63.14 63.14 0 0 1-63.04 63.04zM78.8 199.26h866.4v-120.4H78.8z" fill="#3390FF" p-id="1057"></path><path d="M122.4 120.22m20.4 0l84.16 0q20.4 0 20.4 20.4l0 0q0 20.4-20.4 20.4l-84.16 0q-20.4 0-20.4-20.4l0 0q0-20.4 20.4-20.4Z" fill="#3390FF" p-id="1058"></path><path d="M960.96 651.06h-898A63.14 63.14 0 0 1 0 588v-152a63.14 63.14 0 0 1 63.04-63.08h898A63.14 63.14 0 0 1 1024 436v152a63.14 63.14 0 0 1-63.04 63.06zM78.8 572.2h866.4v-120.4H78.8z" fill="#FF9041" p-id="1059"></path><path d="M122.4 491.6m20.4 0l84.16 0q20.4 0 20.4 20.4l0 0q0 20.4-20.4 20.4l-84.16 0q-20.4 0-20.4-20.4l0 0q0-20.4 20.4-20.4Z" fill="#FF9041" p-id="1060"></path></svg>