<?xml version="1.0" standalone="no"?><!DOCTYPE svg PUBLIC "-//W3C//DTD SVG 1.1//EN" "http://www.w3.org/Graphics/SVG/1.1/DTD/svg11.dtd"><svg t="1614264623405" class="icon" viewBox="0 0 1024 1024" version="1.1" xmlns="http://www.w3.org/2000/svg" p-id="840" width="16" height="16" xmlns:xlink="http://www.w3.org/1999/xlink"><defs><style type="text/css"></style></defs><path d="M295.68 512a37.1 37.1 0 0 0 0 74.2h432.64a37.1 37.1 0 0 0 0-74.2z" fill="#FF9041" p-id="841"></path><path d="M728.32 686.42H295.68a37.1 37.1 0 1 0 0 74.2h432.64a37.1 37.1 0 0 0 0-74.2z" fill="#3390FF" p-id="842"></path><path d="M1023.82 277.68c-0.1-0.9-0.26-1.8-0.4-2.68 0-0.3 0-0.62-0.14-0.92-0.22-1.06-0.5-2-0.78-3.12l-0.12-0.38a31.1 31.1 0 0 0-1.08-3.08c0-0.1 0-0.22-0.14-0.34-0.38-0.94-0.84-1.86-1.3-2.78-0.1-0.16-0.16-0.34-0.26-0.5-0.44-0.84-0.94-1.64-1.44-2.42l-0.42-0.7c-0.5-0.74-1.04-1.44-1.58-2.14-0.2-0.26-0.38-0.54-0.6-0.78a31.16 31.16 0 0 0-2.32-2.56l-0.1-0.14L768.86 10.86l-0.16-0.12c-0.8-0.8-1.66-1.58-2.54-2.3l-0.76-0.58c-0.7-0.54-1.42-1.1-2.16-1.6l-0.66-0.4c-0.8-0.52-1.62-1.02-2.46-1.46l-0.46-0.24q-1.38-0.72-2.82-1.32l-0.3-0.12c-1.02-0.4-2-0.78-3.12-1.1l-0.32-0.1C752 1.22 751 0.94 750 0.72l-0.96-0.12c-0.9-0.16-1.8-0.32-2.72-0.42-1.22-0.18-2.46-0.18-3.7-0.18H59.36A59.42 59.42 0 0 0 0 59.36v905.28A59.42 59.42 0 0 0 59.36 1024h905.28A59.42 59.42 0 0 0 1024 964.64V281.38c0-1.24 0-2.48-0.18-3.7z m-271.06-178l171.52 171.52h-171.52z m197.04 850H74.2V74.2h604.36v207.18a64.14 64.14 0 0 0 64 64H949.8z" fill="#3390FF" p-id="843"></path></svg>