<?xml version="1.0" standalone="no"?><!DOCTYPE svg PUBLIC "-//W3C//DTD SVG 1.1//EN" "http://www.w3.org/Graphics/SVG/1.1/DTD/svg11.dtd"><svg t="1614264646991" class="icon" viewBox="0 0 1024 1024" version="1.1" xmlns="http://www.w3.org/2000/svg" p-id="1309" width="32" height="32" xmlns:xlink="http://www.w3.org/1999/xlink"><defs><style type="text/css"></style></defs><path d="M357.14 1024H99A99.12 99.12 0 0 1 0 925v-826A99.12 99.12 0 0 1 99 0h826A99.12 99.12 0 0 1 1024 99v425.34a40 40 0 1 1-80 0V99a19.26 19.26 0 0 0-19-19h-826a19.26 19.26 0 0 0-19 19v826a19.26 19.26 0 0 0 19 19h258.14a40 40 0 0 1 0 80z" fill="#3390FF" p-id="1310"></path><path d="M638.6 462L536 364.74c-0.3-0.3-0.62-0.54-0.92-0.8s-1.12-1-1.7-1.46-0.98-0.74-1.48-1.1l-1.68-1.18c-0.56-0.36-1.1-0.68-1.66-1s-1.14-0.66-1.72-0.96-1.16-0.58-1.76-0.84-1.18-0.54-1.8-0.78l-1.8-0.66-1.9-0.62-1.86-0.46c-0.64-0.16-1.28-0.3-2-0.42s-1.32-0.22-2-0.3-1.24-0.18-1.88-0.24-1.44 0-2.16-0.1-0.84 0-1.28 0h-0.4l-2.16 0.12c-0.62 0-1.24 0-1.84 0.12s-1.26 0.2-2 0.3-1.34 0.2-2 0.34-1.12 0.28-1.68 0.44-1.4 0.34-2 0.56-1.1 0.4-1.66 0.6-1.32 0.48-2 0.76-1.16 0.54-1.76 0.84-1.16 0.54-1.72 0.84l-1.72 1.06c-0.54 0.32-1.08 0.64-1.58 1s-1.04 0.76-1.54 1.14-1.1 0.82-1.62 1.26-0.86 0.78-1.28 1.18-1.12 1-1.64 1.54l-0.36 0.36-97.22 102.5a40 40 0 1 0 58 55.06L468.56 494v489.52a40 40 0 1 0 80 0V486.82l35 33.18a40 40 0 0 0 55.04-58z" fill="#FF9041" p-id="1311"></path><path d="M941.56 851.7a40 40 0 0 0-56.54 1.5l-28.2 29.72V393.48a40 40 0 0 0-80 0v496.7l-34.98-33.2a40 40 0 1 0-55.06 58l102.52 97.22c0.32 0.32 0.7 0.58 1.04 0.88s0.96 0.88 1.48 1.28 0.96 0.74 1.44 1.1 1.1 0.8 1.68 1.18 0.94 0.58 1.42 0.86 1.26 0.76 1.9 1.1l1.36 0.64c0.7 0.34 1.42 0.68 2.14 0.98s0.88 0.32 1.32 0.48c0.76 0.28 1.52 0.56 2.3 0.78 0.46 0.16 0.94 0.26 1.42 0.38s1.52 0.4 2.28 0.56 1.26 0.18 1.9 0.28 1.26 0.22 2 0.28c1.3 0.12 2.6 0.2 4 0.2h1.06l1.56-0.12 2-0.14 1.78-0.28 2.2-0.38 1.46-0.38c0.8-0.2 1.6-0.42 2.38-0.66l1.24-0.46c0.8-0.3 1.62-0.58 2.4-0.94l1.2-0.58c0.76-0.36 1.52-0.72 2.26-1.14 0.44-0.24 0.86-0.52 1.28-0.78s1.34-0.8 2-1.24 0.88-0.68 1.34-1 1.16-0.88 1.72-1.36 0.86-0.78 1.28-1.18 1.06-0.96 1.56-1.48c0.12-0.12 0.26-0.22 0.36-0.34l97.22-102.52a40 40 0 0 0-1.72-56.5z" fill="#3390FF" p-id="1312"></path></svg>